<?xml version="1.0" encoding="utf-8"?>
<!-- Generator: Adobe Illustrator 22.0.0, SVG Export Plug-In . SVG Version: 6.00 Build 0)  -->
<svg version="1.1" id="Слой_1" xmlns="http://www.w3.org/2000/svg" xmlns:xlink="http://www.w3.org/1999/xlink" x="0px" y="0px"
	 viewBox="0 0 1024 1024" style="enable-background:new 0 0 1024 1024;" xml:space="preserve">
<style type="text/css">
	.st0{fill:#FFFFFF;}
	.st1{font-family:'MyriadPro-Regular';}
	.st2{font-size:451.1035px;}
</style>
<g transform="translate(0.000000,1024.000000) scale(0.100000,-0.100000)">
	<path d="M4785,10234c-22-2-92-9-155-14c-1453-131-2814-915-3676-2120C474,7430,167,6670,51,5865c-41-281-46-364-46-745
		s5-464,46-745C329,2454,1696,840,3550,242c332-107,682-180,1080-224c155-17,825-17,980,0c687,76,1269,246,1843,539
		c88,45,440,254,440,254l41,27c363,236,747,572,1051,922c647,743,1064,1649,1204,2615c41,281,46,364,46,745s-5,464-46,745
		c-278,1921-1645,3535-3499,4133c-327,106-675,179-1065,223C5529,10231,4868,10242,4785,10234z"/>
	<text transform="matrix(10 0 0 -10 2759.4434 3587.7539)" class="st0 st1 st2">llb</text>
</g>
</svg>
